<?xml version="1.0" standalone="no"?>
<!DOCTYPE svg PUBLIC "-//W3C//DTD SVG 20010904//EN"
 "http://www.w3.org/TR/2001/REC-SVG-20010904/DTD/svg10.dtd">
<svg version="1.0" xmlns="http://www.w3.org/2000/svg"
 width="260.000000pt" height="260.000000pt" viewBox="0 0 260.000000 260.000000"
 preserveAspectRatio="xMidYMid meet">
<metadata>
Created by potrace 1.11, written by Peter Selinger 2001-2013
</metadata>
<g transform="translate(0.000000,260.000000) scale(0.100000,-0.100000)"
fill="#000000" stroke="none">
<path d="M0 1300 l0 -1300 1300 0 1300 0 0 1300 0 1300 -1300 0 -1300 0 0
-1300z m1998 1228 c7 -7 12 -42 12 -87 0 -121 -15 -138 -256 -299 -67 -45
-173 -106 -235 -136 -208 -102 -236 -128 -253 -246 -7 -44 -27 -142 -48 -230
-6 -25 -15 -69 -20 -99 -5 -29 -13 -61 -18 -71 -5 -10 -14 -42 -19 -71 -5 -30
-15 -74 -21 -99 -75 -290 -84 -354 -50 -365 25 -8 42 5 80 60 57 82 99 172
110 236 17 97 28 126 61 154 27 22 40 25 110 25 90 0 171 23 248 70 26 17 62
30 79 30 47 0 139 -38 162 -67 29 -38 25 -74 -21 -171 -23 -48 -59 -124 -80
-168 -41 -87 -56 -150 -40 -173 5 -8 23 -14 39 -13 44 1 57 -18 42 -64 -8 -24
-10 -62 -6 -105 8 -88 -4 -102 -104 -119 -170 -29 -330 52 -330 166 0 54 -14
84 -39 84 -10 0 -67 -53 -131 -122 -184 -200 -211 -218 -317 -218 l-67 0 -53
-52 c-52 -51 -54 -52 -122 -56 -40 -2 -77 1 -90 7 -24 13 -27 47 -8 76 11 17
59 127 99 225 14 33 36 104 53 165 24 87 43 148 69 220 13 39 29 93 35 120 5
28 15 73 21 100 6 28 17 79 25 115 8 36 17 94 20 130 3 36 10 89 16 119 11 64
1 81 -44 81 -24 0 -43 -13 -91 -62 -34 -35 -82 -89 -109 -120 -73 -87 -130
-90 -182 -8 -36 57 -32 94 17 170 88 136 324 336 463 392 85 34 121 47 145 53
14 4 39 12 55 20 17 7 50 21 75 31 179 70 284 127 417 227 187 141 267 179
301 145z"/>
</g>
</svg>
